<?xml version="1.0" encoding="utf-8"?>
<!-- Generator: Adobe Illustrator 18.0.0, SVG Export Plug-In . SVG Version: 6.00 Build 0)  -->
<!DOCTYPE svg PUBLIC "-//W3C//DTD SVG 1.1//EN" "http://www.w3.org/Graphics/SVG/1.1/DTD/svg11.dtd">
<svg version="1.1" id="Layer_2" xmlns="http://www.w3.org/2000/svg" xmlns:xlink="http://www.w3.org/1999/xlink" x="0px" y="0px"
	 viewBox="0 0 2752.1 398.7" enable-background="new 0 0 2752.1 398.7" xml:space="preserve">
<g>
	<path fill="#D71A21" d="M590.1,280.4L561.2,228c-6.5-12.2-13.1-14.5-13.1-14.5v-0.8c0,0,5.8-2.7,14.6-14.5l53.1-71.9h-43.1
		l-45,62.7c-4.6,6.5-13.1,8.4-20,8.4h-17.3l0-125.5c0-17.2-7.7-22.2-25-22.2h-36.5l0,31.8h15.8c5.4,0,8.5,2.7,8.5,8.4l0,229.9h37.3
		l0-91.1h14.2c6.5,0,15.4,0.8,19.2,8l35.8,65c8.1,14.9,14.2,18,31.9,18h26.9v-31.8H607C597,288.1,593.5,286.6,590.1,280.4z"/>
	<path fill="#D71A21" d="M687.8,279.7l0-205.4c0-17.2-7.3-24.5-24.6-24.5h-36.5v31.8H642c5.4,0,8.5,2.7,8.5,8.4l0,205.5
		c0,17.2,7.7,24.5,25,24.5H712v-31.8h-15.8C690.8,288.1,687.8,285.4,687.8,279.7z"/>
	<path fill="#D71A21" d="M830.9,121.7c-55.4,0-97.7,39.8-97.7,101.4c0,57.4,42.3,101.4,103.5,101.4c36.9,0,66.2-19.9,75.4-27.5
		l-15.8-27.2c-6.5,4.6-27.7,22.6-57.3,22.6c-35,0-65-22.6-67.3-64.3h141.9c0.4-3.1,1.2-10.3,1.2-15.7
		C914.7,162.6,885.9,121.7,830.9,121.7z M773.2,201.2c5.4-32.1,28.1-50.9,56.9-50.9c25.4,0,46.2,17.6,47.3,50.9L773.2,201.2z"/>
	<path fill="#D71A21" d="M1038.2,121.7c-55.4,0-97.7,39.8-97.7,101.4c0,57.4,42.3,101.4,103.5,101.4c36.9,0,66.2-19.9,75.4-27.5
		l-15.8-27.2c-6.5,4.6-27.7,22.6-57.3,22.6c-35,0-65-22.6-67.3-64.3h141.9c0.4-3.1,1.2-10.3,1.2-15.7
		C1122,162.6,1093.2,121.7,1038.2,121.7z M980.5,201.2c5.4-32.1,28.1-50.9,56.9-50.9c25.4,0,46.2,17.6,47.3,50.9H980.5z"/>
	<path fill="#D71A21" d="M1203.9,174.4h-0.8c0,0,0.8-5.7,0.8-13.4v-12.2c0-15.7-8.1-22.6-24.6-22.6h-35.8l0,31.8h15.8
		c5.4,0,8.5,2.7,8.5,8.4l0,153.4h37.3v-79.2c0-11.9,1.1-23.7,4.6-34.8c9.2-28.7,30.8-47.8,55-47.8h10.8v-31.8h-10
		C1235.5,126.2,1213.2,146.1,1203.9,174.4z"/>
	<path fill="#D71A21" d="M1399.3,287.7c0,0-3.5,0.8-8.8,0.8c-14.2,0-41.5-5-41.5-43.6V158l46.9,0v-31.8h-46.9V73.1h-36.5v53.2h-19
		V158h18.2v91.1c0,64.7,49.6,72.3,74.6,72.3c7.7,0,13.1-0.8,13.1-0.8V287.7z"/>
	<rect x="1438.9" y="49.7" fill="#D71A21" width="33.5" height="38.6"/>
	<path fill="#D71A21" d="M1450.9,126.2h-36.9V158h15.8c5.4,0,8.5,2.7,8.5,8.4V324c0,37.9-27.3,42.5-41.9,42.5c-5,0-8.5-0.4-8.5-0.4
		v31.8c0,0,5.4,0.8,13.1,0.8c24.2,0,74.6-7.7,74.6-72.3V150.7C1475.5,133.5,1468.2,126.2,1450.9,126.2z"/>
	<path fill="#D71A21" d="M1610.5,121.7c-55.4,0-97.7,39.8-97.7,101.4c0,57.4,42.3,101.4,103.5,101.4c36.9,0,66.2-19.9,75.4-27.5
		l-15.8-27.2c-6.5,4.6-27.7,22.6-57.3,22.6c-35,0-65-22.6-67.3-64.3h141.9c0.4-3.1,1.2-10.3,1.2-15.7
		C1694.4,162.6,1665.5,121.7,1610.5,121.7z M1552.8,201.2c5.4-32.1,28.1-50.9,56.9-50.9c25.4,0,46.2,17.6,47.3,50.9H1552.8z"/>
	<path fill="#D71A21" d="M1760.9,174.4c0-15.3,14.6-22.9,36.5-22.9c11.5,0,29.2,5,29.2,16.5v9.6h33.5v-18.4
		c0-29.5-40.8-37.5-63.8-37.5c-39.6,0-72.3,17.2-72.3,54.3c0,62.4,105.8,58.5,105.8,93.4c0,16.8-15.4,24.9-33.5,24.9
		c-35.8,0-59.2-28.7-59.2-28.7l-18.8,24.9c0,0,25.8,34,77.7,34c40.8,0,71.5-22.2,71.5-56.6C1867.4,203.1,1760.9,211.2,1760.9,174.4z
		"/>
	<rect x="1901.6" y="281" fill="#D71A21" width="38.1" height="39.4"/>
	<path fill="#D71A21" d="M2081.6,292.1c-36.5,0-68.8-24.9-68.8-68.9c0-40.9,28.8-69.3,66.9-69.3c13.8,0,36.2,6.1,36.2,19.9v10.7
		h33.9v-19.9c0-32.9-46.5-42.5-70-42.5c-62.7,0-104.6,44.4-104.6,101.4c0,58.2,42.7,101.4,103.9,101.4c51.5,0,78.8-33.3,78.8-33.3
		l-15.8-26.4C2142,265.4,2118.2,292.1,2081.6,292.1z"/>
	<path fill="#D71A21" d="M2281.7,122.3c-58.1,0-104.6,42.5-104.6,101c0,58.9,46.5,101.8,104.6,101.8c58.1,0,105-42.9,105-101.8
		C2386.7,164.7,2339.8,122.3,2281.7,122.3z M2281.7,292.9c-36.6,0-66.9-29.1-66.9-69.6c0-40.2,30.4-68.9,66.9-68.9
		c36.9,0,66.9,28.7,66.9,68.9C2348.6,263.8,2318.6,292.9,2281.7,292.9z"/>
	<path fill="#D71A21" d="M2736.3,288.7c-5.4,0-8.5-2.7-8.5-8.4v-83.8c0-49.4-20.4-74.2-64.2-74.2c-31.6,0-58.5,20.6-68.9,44h-0.8
		c-6.9-29.1-25.8-44-58.9-44c-30.4,0-57.3,21.8-66.5,44.4h-0.8c0,0,0.4-5,0.4-11.1v-7.3c0-14.2-7.7-21.4-24.6-21.4h-35.8v31.8h15.8
		c5.4,0,8.5,2.7,8.5,8.4v153.4h37.3v-88.4c0-8.8,0.8-17.2,2.7-24.9c7.3-27.5,27.7-51.3,55.8-51.3c29.6,0,33.5,23.3,33.5,48.6v115.9
		h37.3v-88.4c0-10,1.2-18.4,3.5-26.4c6.5-26.4,27.3-49.7,54.2-49.7c28.9,0,34.2,21.4,34.2,48.6V296c0,17.2,7.3,24.5,24.6,24.5h36.9
		v-31.7H2736.3z"/>
	<path fill="#D71A21" d="M290,108.5c-6.5,0.9-9.7-0.9-13.2-6.2c-14.6-22.4-34.8-38.3-59.6-48.1c-2.9-1.2-5.9-2.4-9.1-3.7
		c2.7-17.2-6.8-28.4-18.5-38.2c-5.2-4.4-10.8-8.2-16.3-12.3c-0.6,0.4-0.7,0.4-1.3,0.8c4.3,19.3-4.9,32-20.6,41.7
		c-6.1,3.7-12.6,6.2-19.2,8.3c-29.9,9.1-53.5,26.8-70.6,53c-2.5,3.8-4.5,5.7-9.7,5c-26.5-3.2-47.4,12.4-51.4,37.4
		c-3.7,23.1,12.3,44.2,37.8,49.7c1.7,0.3,3.3,0.7,4.9,1c0.3,0.8,0.6,1.3,0.9,1.8c5.3,12.7,4.9,24.2-0.9,37.7
		c-12,27.8-1,58.9,25.3,81.1c19,16,41.1,25.2,65.2,30.2l26.4,3.3l15.9,0.8l19.4-1.4c0.2,0,0.4-0.1,0.6-0.1
		c9.3-2.3,16.1-3.6,25.4-6.5c27.1-8.4,51.1-21.6,67.3-45.8c14.8-22.1,16.7-45.7,4.8-69.6c-3.1-6.2-4.4-11.4-1.2-17.9
		c2.1-4.1,2.6-8.9,3.8-13.2c4.9-1.1,9.5-1.9,13.8-3.3c21.3-7.1,33.9-29,29.3-50.4C334.1,120.3,313.9,105.5,290,108.5z M41.6,179.9
		C25.8,179,14.5,165,16,148.8c1.5-16,16.7-27.2,34.7-24.9C43.6,142.3,40.4,160.8,41.6,179.9z M259.7,307.1
		c-19.1,16-41.9,24.1-66.4,27.2c-39.5,5-77-0.5-109.9-24.4c-17.8-12.9-29.9-29.6-29.1-53c0.8-21.8,13.3-36.7,29.5-49.3
		c3.9-3.1,8.2-5.6,13.2-9c-16.8-16.1-23.3-33.9-11.5-54.8c8.4-14.8,25.6-22.8,41.7-19.9c20.7,3.8,30.3,15.4,35.8,41.9
		c4.4,0,8.9,0,14,0c1.8-23.1,13.7-38.4,37.8-42.3c15.2-2.4,32.4,6.7,40.1,21.4c10.7,20.4,4.3,37.8-11.3,52.8c1.6,3.8,5.3,4.8,8,6.7
		c14.9,10.4,27.6,22.9,32.2,41.2C290.2,271.5,278.8,291.1,259.7,307.1z M298.5,180.8c0.2-19.5-1.8-38.5-9.6-56.5
		c16.2-3.5,31.2,5.9,34.9,20.9C327.9,161.5,317.9,176.1,298.5,180.8z"/>
	<path fill="#D71A21" d="M277.2,255.8c-4.2-2.6-8.8-3.1-13.5-1.6c-3.1,0.9-6.6,1.9-7.3,5.5c-0.9,5,5.2,2,6.5,4.7
		c-2,8.5-6.2,15.3-12.2,21.1c-18.3,17.8-41.1,25.2-65.6,27.7c-33.2,3.4-64.6-2.5-91.7-23.5c-8.3-6.4-14.2-14.5-16.9-26.4
		c3.1-0.6,7.3,0.9,7.2-3.4c-0.2-3.4-3.3-4.5-6.1-5.5c-5.3-1.8-10.3-1.4-15.1,1.7c-2.2,1.5-4.8,2.8-4.3,6c0.8,4.4,4.7,1.3,7,2.4
		c3.7,19,15.9,31.5,31.4,41.3c16.1,10.1,33.8,15.8,52.5,17.9c35.8,4,70-0.9,100-22.3c12.9-9.2,22.6-21.1,25-37.8
		c2.8,0.9,6.3,2.8,7.5-1.3C283,258.7,279.6,257.2,277.2,255.8z"/>
	<path fill="#D71A21" d="M115.7,182.9c5.2,1.9,9.7,0.8,13.8-2.6c5.6-4.5,8-10.5,7.7-17.3c0.1-12-6-21-14.7-22.3
		c-8.3-1.2-16.2,5.1-18.6,14.9C101.1,167.5,106.4,179.6,115.7,182.9z"/>
	<path fill="#D71A21" d="M151.1,210.3c8.5,6.2,28.6,6.3,37.4,0.1c6.3-4.4,6.4-10.5,0.1-14.9c-5.7-3.9-12.4-4.6-18.9-4.8
		c-6.7,0.3-13.1,0.9-18.5,4.6C145.1,199.6,145.1,205.9,151.1,210.3z"/>
	<path fill="#D71A21" d="M202.4,174.5c8.1-2.1,16.3-5.2,24.5-0.3c2.9,1.8,6.1,3.6,8-0.5c1.7-3.6-0.9-5.9-3.8-7.8
		c-4.8-3.2-10.3-3-17.4-3.1c7.4-6.3,14.3-8.1,22-7.1c3.4,0.5,7.7,1.8,8.2-3.4c0.5-5-4-5.1-7.3-5.5c-17.2-2-29.5,6.6-40.3,18.5
		c-2.3,2.6-5.5,5.5-2.6,9.1C196.1,177.8,199.4,175.4,202.4,174.5z"/>
</g>
</svg>
